<?xml version="1.0" encoding="UTF-8" standalone="no"?>
<svg
   xmlns:dc="http://purl.org/dc/elements/1.1/"
   xmlns:cc="http://creativecommons.org/ns#"
   xmlns:rdf="http://www.w3.org/1999/02/22-rdf-syntax-ns#"
   xmlns:svg="http://www.w3.org/2000/svg"
   xmlns="http://www.w3.org/2000/svg"
   xmlns:sodipodi="http://sodipodi.sourceforge.net/DTD/sodipodi-0.dtd"
   xmlns:inkscape="http://www.inkscape.org/namespaces/inkscape"
   height="512pt"
   viewBox="-80 0 512 512"
   width="512pt"
   version="1.1"
   id="svg4"
   sodipodi:docname="car-service-gpstrack.svg"
   inkscape:version="0.92.3 (2405546, 2018-03-11)">
  <metadata
     id="metadata10">
    <rdf:RDF>
      <cc:Work
         rdf:about="">
        <dc:format>image/svg+xml</dc:format>
        <dc:type
           rdf:resource="http://purl.org/dc/dcmitype/StillImage" />
      </cc:Work>
    </rdf:RDF>
  </metadata>
  <defs
     id="defs8" />
  <sodipodi:namedview
     pagecolor="#ffffff"
     bordercolor="#666666"
     borderopacity="1"
     objecttolerance="10"
     gridtolerance="10"
     guidetolerance="10"
     inkscape:pageopacity="0"
     inkscape:pageshadow="2"
     inkscape:window-width="1600"
     inkscape:window-height="838"
     id="namedview6"
     showgrid="false"
     inkscape:zoom="0.34570313"
     inkscape:cx="-18.80226"
     inkscape:cy="341.33333"
     inkscape:window-x="-8"
     inkscape:window-y="-8"
     inkscape:window-maximized="1"
     inkscape:current-layer="svg4" />
  <path
     d="m314.546875 310.410156-20.550781-63.574218-.148438-.4375c-6.550781-18.78125-24.171875-31.398438-43.847656-31.398438h-68.378906l8.988281-8.34375c7.304687-6.785156 71.390625-67.777344 71.390625-119.40625v-1.996094c0-47.011718-38.132812-85.253906-85-85.253906s-85 38.242188-85 85.253906v1.996094c0 51.628906 64.085938 112.621094 71.390625 119.40625l8.988281 8.34375h-70.550781c-19.675781 0-37.296875 12.617188-43.847656 31.398438l-20.746094 64.203124c-7.351563 3.101563-14.105469 7.722657-19.898437 13.714844-11.179688 11.566406-17.335938 26.722656-17.335938 42.683594v105c0 22.054688 17.945312 40 40 40 20.359375 0 37.207031-15.296875 39.675781-35h192.648438c2.46875 19.703125 19.3125 35 39.675781 35 20.933594 0 40-16.683594 40-35v-111c0-25.113281-15.515625-46.65625-37.453125-55.589844zm-154.332031-166.507812c-24.550782-31.179688-28.214844-48.875-28.214844-56.652344v-1.996094c0-24.953125 20.1875-45.253906 45-45.253906s45 20.300781 45 45.253906v1.996094c0 21.078125-23.84375 53.585938-44.929688 76.320312-5.023437-5.421874-10.941406-12.15625-16.855468-19.667968zm-58.386719 111.097656h148.171875c2.59375 0 5.050781 1.8125 6.027344 4.429688l15.054687 46.570312h-190.324219l15.042969-46.574219c.976563-2.613281 3.433594-4.425781 6.027344-4.425781zm210.171875 162c0 11.027344-8.972656 20-20 20h-232c-11.027344 0-20-8.972656-20-20v-50c0-11.382812 9.160156-21 20-21h232c11.027344 0 20 8.972656 20 20zm-181-46h91v40h-91zm156 20c0 11.046875-8.953125 20-20 20s-20-8.953125-20-20 8.953125-20 20-20 20 8.953125 20 20zm-181 0c0 11.046875-8.953125 20-20 20s-20-8.953125-20-20 8.953125-20 20-20 20 8.953125 20 20zm71-286c-11.046875 0-20-8.953125-20-20s8.953125-20 20-20 20 8.953125 20 20-8.953125 20-20 20zm0 0"
     id="path2"
     style="fill:#595959;fill-opacity:1" />
</svg>
