<?xml version="1.0" encoding="UTF-8" standalone="no"?>
<!-- Generator: Adobe Illustrator 21.0.0, SVG Export Plug-In . SVG Version: 6.00 Build 0)  -->

<svg
   xmlns:dc="http://purl.org/dc/elements/1.1/"
   xmlns:cc="http://creativecommons.org/ns#"
   xmlns:rdf="http://www.w3.org/1999/02/22-rdf-syntax-ns#"
   xmlns:svg="http://www.w3.org/2000/svg"
   xmlns="http://www.w3.org/2000/svg"
   xmlns:sodipodi="http://sodipodi.sourceforge.net/DTD/sodipodi-0.dtd"
   xmlns:inkscape="http://www.inkscape.org/namespaces/inkscape"
   version="1.1"
   id="Capa_1"
   x="0px"
   y="0px"
   viewBox="0 0 512 512"
   style="enable-background:new 0 0 512 512;"
   xml:space="preserve"
   width="512"
   height="512"
   sodipodi:docname="car-service-water-bottle.svg"
   inkscape:version="0.92.3 (2405546, 2018-03-11)"><metadata
   id="metadata17"><rdf:RDF><cc:Work
       rdf:about=""><dc:format>image/svg+xml</dc:format><dc:type
         rdf:resource="http://purl.org/dc/dcmitype/StillImage" /></cc:Work></rdf:RDF></metadata><defs
   id="defs15" /><sodipodi:namedview
   pagecolor="#ffffff"
   bordercolor="#666666"
   borderopacity="1"
   objecttolerance="10"
   gridtolerance="10"
   guidetolerance="10"
   inkscape:pageopacity="0"
   inkscape:pageshadow="2"
   inkscape:window-width="1600"
   inkscape:window-height="838"
   id="namedview13"
   showgrid="false"
   inkscape:zoom="0.4609375"
   inkscape:cx="-132.33898"
   inkscape:cy="256"
   inkscape:window-x="-8"
   inkscape:window-y="-8"
   inkscape:window-maximized="1"
   inkscape:current-layer="Capa_1" />
<g
   id="g10"
   style="fill:#595959;fill-opacity:1">
	<path
   d="M221.537,99.049h68.927c23.058,0,41.816-18.759,41.816-41.816v-0.144C332.28,25.61,306.669,0,275.19,0H236.81   c-31.479,0-57.089,25.61-57.089,57.089v0.144C179.72,80.291,198.479,99.049,221.537,99.049z"
   id="path2"
   style="fill:#595959;fill-opacity:1" />
	<path
   d="M365.961,248.775H146.034c-1.66,5.289-2.528,10.864-2.528,16.571c-0.003,11.778,3.69,22.999,10.421,32.302   c-6.729,9.299-10.421,20.511-10.421,32.281c0,6.231,1.034,12.305,3.005,18.021h218.976c1.972-5.716,3.006-11.79,3.006-18.021   c0-11.765-3.695-22.975-10.428-32.271c6.738-9.305,10.434-20.528,10.428-32.306C368.494,259.643,367.624,254.066,365.961,248.775z"
   id="path4"
   style="fill:#595959;fill-opacity:1" />
	<path
   d="M365.967,377.95H146.033c-1.659,5.284-2.527,10.854-2.527,16.553l-0.006,45.99c0.001,39.42,32.244,71.498,71.877,71.507   l81.251,0c39.627-0.009,71.869-32.087,71.872-71.51l-0.006-45.984C368.494,388.805,367.626,383.235,365.967,377.95z"
   id="path6"
   style="fill:#595959;fill-opacity:1" />
	<path
   d="M365.503,218.775c1.965-5.71,2.997-11.777,2.997-18.001l-0.005-19.988c0.009-18.076-5.505-35.472-15.95-50.311   l-11.388-16.161c-10.102,8.587-23.179,13.774-37.445,13.774h-95.423c-14.266,0-27.343-5.187-37.445-13.774l-11.396,16.173   c-10.437,14.83-15.95,32.221-15.941,50.283l-0.006,20.012c0,6.22,1.033,12.285,3.001,17.994H365.503z"
   id="path8"
   style="fill:#595959;fill-opacity:1" />
</g>















</svg>